<?xml version="1.0" encoding="UTF-8" standalone="no"?>
<!DOCTYPE svg PUBLIC "-//W3C//DTD SVG 1.1//EN"
 "http://www.w3.org/Graphics/SVG/1.1/DTD/svg11.dtd">
<!-- Generated by graphviz version 2.36.0 (20140111.2315)
 -->
<!-- Title: G Pages: 1 -->
<svg width="1993pt" height="921pt"
 viewBox="0.00 0.00 1993.20 920.68" xmlns="http://www.w3.org/2000/svg" xmlns:xlink="http://www.w3.org/1999/xlink">
<g id="graph0" class="graph" transform="scale(1 1) rotate(0) translate(21.6 899.081)">
<title>G</title>
<polygon fill="#111111" stroke="none" points="-21.6,21.6 -21.6,-899.081 1971.6,-899.081 1971.6,21.6 -21.6,21.6"/>
<!-- api/APIUtils.ts -->
<g id="node1" class="node"><title>api/APIUtils.ts</title>
<path fill="none" stroke="#cfffac" d="M1942.33,-546.535C1942.33,-546.535 1853.67,-546.535 1853.67,-546.535 1849.83,-546.535 1846,-542.702 1846,-538.868 1846,-538.868 1846,-531.202 1846,-531.202 1846,-527.368 1849.83,-523.535 1853.67,-523.535 1853.67,-523.535 1942.33,-523.535 1942.33,-523.535 1946.17,-523.535 1950,-527.368 1950,-531.202 1950,-531.202 1950,-538.868 1950,-538.868 1950,-542.702 1946.17,-546.535 1942.33,-546.535"/>
<text text-anchor="middle" x="1898" y="-531.335" font-family="Arial" font-size="14.00" fill="#cfffac">api/APIUtils.ts</text>
</g>
<!-- api/ArticlesAPI.ts -->
<g id="node2" class="node"><title>api/ArticlesAPI.ts</title>
<path fill="none" stroke="#c6c5fe" d="M1785.33,-327.535C1785.33,-327.535 1678.67,-327.535 1678.67,-327.535 1674.83,-327.535 1671,-323.702 1671,-319.868 1671,-319.868 1671,-312.202 1671,-312.202 1671,-308.368 1674.83,-304.535 1678.67,-304.535 1678.67,-304.535 1785.33,-304.535 1785.33,-304.535 1789.17,-304.535 1793,-308.368 1793,-312.202 1793,-312.202 1793,-319.868 1793,-319.868 1793,-323.702 1789.17,-327.535 1785.33,-327.535"/>
<text text-anchor="middle" x="1732" y="-312.335" font-family="Arial" font-size="14.00" fill="#c6c5fe">api/ArticlesAPI.ts</text>
</g>
<!-- api/ArticlesAPI.ts&#45;&gt;api/APIUtils.ts -->
<g id="edge1" class="edge"><title>api/ArticlesAPI.ts&#45;&gt;api/APIUtils.ts</title>
<path fill="none" stroke="#757575" d="M1793.29,-325.835C1799.34,-328.481 1805.06,-331.821 1810,-336.035 1865.44,-383.339 1886.76,-472.648 1893.88,-513.571"/>
<polygon fill="#757575" stroke="#757575" points="1890.44,-514.226 1895.49,-523.537 1897.35,-513.106 1890.44,-514.226"/>
</g>
<!-- api/AuthAPI.ts -->
<g id="node3" class="node"><title>api/AuthAPI.ts</title>
<path fill="none" stroke="#c6c5fe" d="M1003.83,-683.535C1003.83,-683.535 914.167,-683.535 914.167,-683.535 910.333,-683.535 906.5,-679.702 906.5,-675.868 906.5,-675.868 906.5,-668.202 906.5,-668.202 906.5,-664.368 910.333,-660.535 914.167,-660.535 914.167,-660.535 1003.83,-660.535 1003.83,-660.535 1007.67,-660.535 1011.5,-664.368 1011.5,-668.202 1011.5,-668.202 1011.5,-675.868 1011.5,-675.868 1011.5,-679.702 1007.67,-683.535 1003.83,-683.535"/>
<text text-anchor="middle" x="959" y="-668.335" font-family="Arial" font-size="14.00" fill="#c6c5fe">api/AuthAPI.ts</text>
</g>
<!-- api/AuthAPI.ts&#45;&gt;api/APIUtils.ts -->
<g id="edge2" class="edge"><title>api/AuthAPI.ts&#45;&gt;api/APIUtils.ts</title>
<path fill="none" stroke="#757575" d="M1002.37,-683.324C1132.72,-715.565 1535.51,-796.435 1810,-646.035 1847.51,-625.483 1874.34,-581.296 1887.6,-555.298"/>
<polygon fill="#757575" stroke="#757575" points="1890.74,-556.831 1892.01,-546.312 1884.46,-553.746 1890.74,-556.831"/>
</g>
<!-- utils.ts -->
<g id="node4" class="node"><title>utils.ts</title>
<path fill="none" stroke="#cfffac" d="M1752.33,-525.535C1752.33,-525.535 1711.67,-525.535 1711.67,-525.535 1707.83,-525.535 1704,-521.702 1704,-517.868 1704,-517.868 1704,-510.202 1704,-510.202 1704,-506.368 1707.83,-502.535 1711.67,-502.535 1711.67,-502.535 1752.33,-502.535 1752.33,-502.535 1756.17,-502.535 1760,-506.368 1760,-510.202 1760,-510.202 1760,-517.868 1760,-517.868 1760,-521.702 1756.17,-525.535 1752.33,-525.535"/>
<text text-anchor="middle" x="1732" y="-510.335" font-family="Arial" font-size="14.00" fill="#cfffac">utils.ts</text>
</g>
<!-- api/AuthAPI.ts&#45;&gt;utils.ts -->
<g id="edge3" class="edge"><title>api/AuthAPI.ts&#45;&gt;utils.ts</title>
<path fill="none" stroke="#757575" d="M1011.56,-676.981C1125.83,-685.86 1406.96,-696.124 1618,-608.035 1658.06,-591.314 1694.78,-555.31 1714.9,-533.032"/>
<polygon fill="#757575" stroke="#757575" points="1717.55,-535.321 1721.54,-525.507 1712.3,-530.689 1717.55,-535.321"/>
</g>
<!-- api/ProfileAPI.ts -->
<g id="node5" class="node"><title>api/ProfileAPI.ts</title>
<path fill="none" stroke="#c6c5fe" d="M1260.33,-447.535C1260.33,-447.535 1159.67,-447.535 1159.67,-447.535 1155.83,-447.535 1152,-443.702 1152,-439.868 1152,-439.868 1152,-432.202 1152,-432.202 1152,-428.368 1155.83,-424.535 1159.67,-424.535 1159.67,-424.535 1260.33,-424.535 1260.33,-424.535 1264.17,-424.535 1268,-428.368 1268,-432.202 1268,-432.202 1268,-439.868 1268,-439.868 1268,-443.702 1264.17,-447.535 1260.33,-447.535"/>
<text text-anchor="middle" x="1210" y="-432.335" font-family="Arial" font-size="14.00" fill="#c6c5fe">api/ProfileAPI.ts</text>
</g>
<!-- api/ProfileAPI.ts&#45;&gt;api/APIUtils.ts -->
<g id="edge4" class="edge"><title>api/ProfileAPI.ts&#45;&gt;api/APIUtils.ts</title>
<path fill="none" stroke="#757575" d="M1268.3,-433.662C1376.78,-430.861 1618.43,-432.743 1810,-493.035 1830.33,-499.433 1851.91,-509.827 1868.49,-518.673"/>
<polygon fill="#757575" stroke="#757575" points="1867.18,-521.943 1877.63,-523.661 1870.53,-515.798 1867.18,-521.943"/>
</g>
<!-- components/App.tsx -->
<g id="node6" class="node"><title>components/App.tsx</title>
<path fill="none" stroke="#c6c5fe" d="M243.833,-666.535C243.833,-666.535 116.167,-666.535 116.167,-666.535 112.333,-666.535 108.5,-662.702 108.5,-658.868 108.5,-658.868 108.5,-651.202 108.5,-651.202 108.5,-647.368 112.333,-643.535 116.167,-643.535 116.167,-643.535 243.833,-643.535 243.833,-643.535 247.667,-643.535 251.5,-647.368 251.5,-651.202 251.5,-651.202 251.5,-658.868 251.5,-658.868 251.5,-662.702 247.667,-666.535 243.833,-666.535"/>
<text text-anchor="middle" x="180" y="-651.335" font-family="Arial" font-size="14.00" fill="#c6c5fe">components/App.tsx</text>
</g>
<!-- components/App.tsx&#45;&gt;api/AuthAPI.ts -->
<g id="edge5" class="edge"><title>components/App.tsx&#45;&gt;api/AuthAPI.ts</title>
<path fill="none" stroke="#757575" d="M185.745,-666.458C198.046,-694.547 233.826,-767.225 288,-802.035 378.049,-859.897 417.502,-839.314 524,-850.035 651.356,-862.855 696.297,-904.778 812,-850.035 881.794,-817.013 929.393,-732.466 948.549,-692.963"/>
<polygon fill="#757575" stroke="#757575" points="951.801,-694.272 952.901,-683.734 945.47,-691.286 951.801,-694.272"/>
</g>
<!-- components/Editor.tsx -->
<g id="node7" class="node"><title>components/Editor.tsx</title>
<path fill="none" stroke="#c6c5fe" d="M457.833,-793.535C457.833,-793.535 318.167,-793.535 318.167,-793.535 314.333,-793.535 310.5,-789.702 310.5,-785.868 310.5,-785.868 310.5,-778.202 310.5,-778.202 310.5,-774.368 314.333,-770.535 318.167,-770.535 318.167,-770.535 457.833,-770.535 457.833,-770.535 461.667,-770.535 465.5,-774.368 465.5,-778.202 465.5,-778.202 465.5,-785.868 465.5,-785.868 465.5,-789.702 461.667,-793.535 457.833,-793.535"/>
<text text-anchor="middle" x="388" y="-778.335" font-family="Arial" font-size="14.00" fill="#c6c5fe">components/Editor.tsx</text>
</g>
<!-- components/App.tsx&#45;&gt;components/Editor.tsx -->
<g id="edge6" class="edge"><title>components/App.tsx&#45;&gt;components/Editor.tsx</title>
<path fill="none" stroke="#757575" d="M189.63,-666.507C206.243,-687.753 244.861,-733.22 288,-757.035 295.611,-761.237 303.939,-764.746 312.431,-767.674"/>
<polygon fill="#757575" stroke="#757575" points="311.467,-771.04 322.057,-770.739 313.591,-764.37 311.467,-771.04"/>
</g>
<!-- components/Header.tsx -->
<g id="node8" class="node"><title>components/Header.tsx</title>
<path fill="none" stroke="#c6c5fe" d="M462.333,-545.535C462.333,-545.535 313.667,-545.535 313.667,-545.535 309.833,-545.535 306,-541.702 306,-537.868 306,-537.868 306,-530.202 306,-530.202 306,-526.368 309.833,-522.535 313.667,-522.535 313.667,-522.535 462.333,-522.535 462.333,-522.535 466.167,-522.535 470,-526.368 470,-530.202 470,-530.202 470,-537.868 470,-537.868 470,-541.702 466.167,-545.535 462.333,-545.535"/>
<text text-anchor="middle" x="388" y="-530.335" font-family="Arial" font-size="14.00" fill="#c6c5fe">components/Header.tsx</text>
</g>
<!-- components/App.tsx&#45;&gt;components/Header.tsx -->
<g id="edge7" class="edge"><title>components/App.tsx&#45;&gt;components/Header.tsx</title>
<path fill="none" stroke="#757575" d="M236.481,-643.707C242.08,-641.119 247.39,-637.94 252,-634.035 279.908,-610.395 259.732,-583.243 288,-560.035 293.002,-555.928 298.585,-552.463 304.482,-549.541"/>
<polygon fill="#757575" stroke="#757575" points="306.216,-552.603 313.969,-545.382 303.405,-546.192 306.216,-552.603"/>
</g>
<!-- components/Login.tsx -->
<g id="node9" class="node"><title>components/Login.tsx</title>
<path fill="none" stroke="#c6c5fe" d="M456.833,-748.535C456.833,-748.535 319.167,-748.535 319.167,-748.535 315.333,-748.535 311.5,-744.702 311.5,-740.868 311.5,-740.868 311.5,-733.202 311.5,-733.202 311.5,-729.368 315.333,-725.535 319.167,-725.535 319.167,-725.535 456.833,-725.535 456.833,-725.535 460.667,-725.535 464.5,-729.368 464.5,-733.202 464.5,-733.202 464.5,-740.868 464.5,-740.868 464.5,-744.702 460.667,-748.535 456.833,-748.535"/>
<text text-anchor="middle" x="388" y="-733.335" font-family="Arial" font-size="14.00" fill="#c6c5fe">components/Login.tsx</text>
</g>
<!-- components/App.tsx&#45;&gt;components/Login.tsx -->
<g id="edge8" class="edge"><title>components/App.tsx&#45;&gt;components/Login.tsx</title>
<path fill="none" stroke="#757575" d="M197.252,-666.443C217.564,-680.183 253.825,-703.032 288,-716.035 295.022,-718.707 302.46,-721.072 309.98,-723.158"/>
<polygon fill="#757575" stroke="#757575" points="309.325,-726.605 319.884,-725.743 311.092,-719.831 309.325,-726.605"/>
</g>
<!-- components/PrivateRoute.tsx -->
<g id="node10" class="node"><title>components/PrivateRoute.tsx</title>
<path fill="none" stroke="#c6c5fe" d="M479.833,-625.535C479.833,-625.535 296.167,-625.535 296.167,-625.535 292.333,-625.535 288.5,-621.702 288.5,-617.868 288.5,-617.868 288.5,-610.202 288.5,-610.202 288.5,-606.368 292.333,-602.535 296.167,-602.535 296.167,-602.535 479.833,-602.535 479.833,-602.535 483.667,-602.535 487.5,-606.368 487.5,-610.202 487.5,-610.202 487.5,-617.868 487.5,-617.868 487.5,-621.702 483.667,-625.535 479.833,-625.535"/>
<text text-anchor="middle" x="388" y="-610.335" font-family="Arial" font-size="14.00" fill="#c6c5fe">components/PrivateRoute.tsx</text>
</g>
<!-- components/App.tsx&#45;&gt;components/PrivateRoute.tsx -->
<g id="edge9" class="edge"><title>components/App.tsx&#45;&gt;components/PrivateRoute.tsx</title>
<path fill="none" stroke="#757575" d="M237.563,-643.777C263.122,-638.69 293.506,-632.643 320.182,-627.334"/>
<polygon fill="#757575" stroke="#757575" points="321.081,-630.723 330.206,-625.339 319.715,-623.858 321.081,-630.723"/>
</g>
<!-- components/Profile.tsx -->
<g id="node11" class="node"><title>components/Profile.tsx</title>
<path fill="none" stroke="#c6c5fe" d="M459.333,-489.535C459.333,-489.535 316.667,-489.535 316.667,-489.535 312.833,-489.535 309,-485.702 309,-481.868 309,-481.868 309,-474.202 309,-474.202 309,-470.368 312.833,-466.535 316.667,-466.535 316.667,-466.535 459.333,-466.535 459.333,-466.535 463.167,-466.535 467,-470.368 467,-474.202 467,-474.202 467,-481.868 467,-481.868 467,-485.702 463.167,-489.535 459.333,-489.535"/>
<text text-anchor="middle" x="388" y="-474.335" font-family="Arial" font-size="14.00" fill="#c6c5fe">components/Profile.tsx</text>
</g>
<!-- components/App.tsx&#45;&gt;components/Profile.tsx -->
<g id="edge10" class="edge"><title>components/App.tsx&#45;&gt;components/Profile.tsx</title>
<path fill="none" stroke="#757575" d="M238.54,-643.724C243.488,-641.126 248.088,-637.94 252,-634.035 291.706,-594.393 249.343,-553.701 288,-513.035 296.144,-504.467 306.515,-497.994 317.461,-493.105"/>
<polygon fill="#757575" stroke="#757575" points="318.788,-496.343 326.754,-489.359 316.171,-489.851 318.788,-496.343"/>
</g>
<!-- components/Register.tsx -->
<g id="node12" class="node"><title>components/Register.tsx</title>
<path fill="none" stroke="#c6c5fe" d="M465.833,-707.535C465.833,-707.535 310.167,-707.535 310.167,-707.535 306.333,-707.535 302.5,-703.702 302.5,-699.868 302.5,-699.868 302.5,-692.202 302.5,-692.202 302.5,-688.368 306.333,-684.535 310.167,-684.535 310.167,-684.535 465.833,-684.535 465.833,-684.535 469.667,-684.535 473.5,-688.368 473.5,-692.202 473.5,-692.202 473.5,-699.868 473.5,-699.868 473.5,-703.702 469.667,-707.535 465.833,-707.535"/>
<text text-anchor="middle" x="388" y="-692.335" font-family="Arial" font-size="14.00" fill="#c6c5fe">components/Register.tsx</text>
</g>
<!-- components/App.tsx&#45;&gt;components/Register.tsx -->
<g id="edge11" class="edge"><title>components/App.tsx&#45;&gt;components/Register.tsx</title>
<path fill="none" stroke="#757575" d="M237.563,-666.293C263.122,-671.38 293.506,-677.427 320.182,-682.736"/>
<polygon fill="#757575" stroke="#757575" points="319.715,-686.212 330.206,-684.731 321.081,-679.347 319.715,-686.212"/>
</g>
<!-- components/Settings.tsx -->
<g id="node13" class="node"><title>components/Settings.tsx</title>
<path fill="none" stroke="#c6c5fe" d="M464.833,-666.535C464.833,-666.535 311.167,-666.535 311.167,-666.535 307.333,-666.535 303.5,-662.702 303.5,-658.868 303.5,-658.868 303.5,-651.202 303.5,-651.202 303.5,-647.368 307.333,-643.535 311.167,-643.535 311.167,-643.535 464.833,-643.535 464.833,-643.535 468.667,-643.535 472.5,-647.368 472.5,-651.202 472.5,-651.202 472.5,-658.868 472.5,-658.868 472.5,-662.702 468.667,-666.535 464.833,-666.535"/>
<text text-anchor="middle" x="388" y="-651.335" font-family="Arial" font-size="14.00" fill="#c6c5fe">components/Settings.tsx</text>
</g>
<!-- components/App.tsx&#45;&gt;components/Settings.tsx -->
<g id="edge12" class="edge"><title>components/App.tsx&#45;&gt;components/Settings.tsx</title>
<path fill="none" stroke="#757575" d="M251.605,-655.035C265.008,-655.035 279.225,-655.035 293.213,-655.035"/>
<polygon fill="#757575" stroke="#757575" points="293.344,-658.535 303.344,-655.035 293.344,-651.535 293.344,-658.535"/>
</g>
<!-- context/auth.tsx -->
<g id="node14" class="node"><title>context/auth.tsx</title>
<path fill="none" stroke="#c6c5fe" d="M717.833,-605.535C717.833,-605.535 618.167,-605.535 618.167,-605.535 614.333,-605.535 610.5,-601.702 610.5,-597.868 610.5,-597.868 610.5,-590.202 610.5,-590.202 610.5,-586.368 614.333,-582.535 618.167,-582.535 618.167,-582.535 717.833,-582.535 717.833,-582.535 721.667,-582.535 725.5,-586.368 725.5,-590.202 725.5,-590.202 725.5,-597.868 725.5,-597.868 725.5,-601.702 721.667,-605.535 717.833,-605.535"/>
<text text-anchor="middle" x="668" y="-590.335" font-family="Arial" font-size="14.00" fill="#c6c5fe">context/auth.tsx</text>
</g>
<!-- components/App.tsx&#45;&gt;context/auth.tsx -->
<g id="edge13" class="edge"><title>components/App.tsx&#45;&gt;context/auth.tsx</title>
<path fill="none" stroke="#757575" d="M232.189,-643.711C239.127,-641.099 245.935,-637.913 252,-634.035 272.43,-620.971 265.909,-603.036 288,-593.035 341.804,-568.676 506.522,-578.972 600.139,-587.298"/>
<polygon fill="#757575" stroke="#757575" points="600.083,-590.808 610.358,-588.225 600.715,-583.836 600.083,-590.808"/>
</g>
<!-- components/Editor.tsx&#45;&gt;api/ArticlesAPI.ts -->
<g id="edge23" class="edge"><title>components/Editor.tsx&#45;&gt;api/ArticlesAPI.ts</title>
<path fill="none" stroke="#757575" d="M465.843,-783.801C575.171,-786.156 781.899,-790.035 958,-790.035 958,-790.035 958,-790.035 1211,-790.035 1456.06,-790.035 1475.21,-617.202 1618,-418.035 1641.19,-385.687 1623.7,-361.847 1654,-336.035 1656.39,-333.996 1658.97,-332.161 1661.68,-330.511"/>
<polygon fill="#757575" stroke="#757575" points="1663.44,-333.542 1670.71,-325.843 1660.22,-327.324 1663.44,-333.542"/>
</g>
<!-- components/common/ListErrors.tsx -->
<g id="node23" class="node"><title>components/common/ListErrors.tsx</title>
<path fill="none" stroke="#cfffac" d="M778.333,-723.535C778.333,-723.535 557.667,-723.535 557.667,-723.535 553.833,-723.535 550,-719.702 550,-715.868 550,-715.868 550,-708.202 550,-708.202 550,-704.368 553.833,-700.535 557.667,-700.535 557.667,-700.535 778.333,-700.535 778.333,-700.535 782.167,-700.535 786,-704.368 786,-708.202 786,-708.202 786,-715.868 786,-715.868 786,-719.702 782.167,-723.535 778.333,-723.535"/>
<text text-anchor="middle" x="668" y="-708.335" font-family="Arial" font-size="14.00" fill="#cfffac">components/common/ListErrors.tsx</text>
</g>
<!-- components/Editor.tsx&#45;&gt;components/common/ListErrors.tsx -->
<g id="edge24" class="edge"><title>components/Editor.tsx&#45;&gt;components/common/ListErrors.tsx</title>
<path fill="none" stroke="#757575" d="M433.974,-770.71C482.626,-758.46 560.21,-738.925 612.342,-725.798"/>
<polygon fill="#757575" stroke="#757575" points="613.247,-729.179 622.09,-723.343 611.538,-722.391 613.247,-729.179"/>
</g>
<!-- reducers/editor.tsx -->
<g id="node24" class="node"><title>reducers/editor.tsx</title>
<path fill="none" stroke="#cfffac" d="M726.333,-841.535C726.333,-841.535 609.667,-841.535 609.667,-841.535 605.833,-841.535 602,-837.702 602,-833.868 602,-833.868 602,-826.202 602,-826.202 602,-822.368 605.833,-818.535 609.667,-818.535 609.667,-818.535 726.333,-818.535 726.333,-818.535 730.167,-818.535 734,-822.368 734,-826.202 734,-826.202 734,-833.868 734,-833.868 734,-837.702 730.167,-841.535 726.333,-841.535"/>
<text text-anchor="middle" x="668" y="-826.335" font-family="Arial" font-size="14.00" fill="#cfffac">reducers/editor.tsx</text>
</g>
<!-- components/Editor.tsx&#45;&gt;reducers/editor.tsx -->
<g id="edge25" class="edge"><title>components/Editor.tsx&#45;&gt;reducers/editor.tsx</title>
<path fill="none" stroke="#757575" d="M454.179,-793.289C495.334,-800.395 548.652,-809.601 591.624,-817.021"/>
<polygon fill="#757575" stroke="#757575" points="591.299,-820.516 601.749,-818.769 592.49,-813.618 591.299,-820.516"/>
</g>
<!-- components/Header.tsx&#45;&gt;utils.ts -->
<g id="edge27" class="edge"><title>components/Header.tsx&#45;&gt;utils.ts</title>
<path fill="none" stroke="#757575" d="M470.097,-534.703C555.25,-535.248 693.043,-535.687 812,-534.035 828.005,-533.813 831.999,-533.429 848,-533.035 1175.72,-524.957 1571.92,-517.12 1693.64,-514.755"/>
<polygon fill="#757575" stroke="#757575" points="1693.97,-518.25 1703.9,-514.556 1693.84,-511.251 1693.97,-518.25"/>
</g>
<!-- components/Header.tsx&#45;&gt;context/auth.tsx -->
<g id="edge26" class="edge"><title>components/Header.tsx&#45;&gt;context/auth.tsx</title>
<path fill="none" stroke="#757575" d="M430.789,-545.327C457.372,-552.319 492.583,-561.231 524,-568.035 548.816,-573.41 576.217,-578.576 600.336,-582.868"/>
<polygon fill="#757575" stroke="#757575" points="600,-586.362 610.456,-584.651 601.215,-579.468 600,-586.362"/>
</g>
<!-- components/Login.tsx&#45;&gt;api/AuthAPI.ts -->
<g id="edge29" class="edge"><title>components/Login.tsx&#45;&gt;api/AuthAPI.ts</title>
<path fill="none" stroke="#757575" d="M464.788,-744.635C550.143,-751.241 692.537,-756.36 812,-732.035 854.22,-723.438 899.651,-702.769 928.424,-688.099"/>
<polygon fill="#757575" stroke="#757575" points="930.251,-691.094 937.514,-683.38 927.026,-684.881 930.251,-691.094"/>
</g>
<!-- components/Login.tsx&#45;&gt;context/auth.tsx -->
<g id="edge31" class="edge"><title>components/Login.tsx&#45;&gt;context/auth.tsx</title>
<path fill="none" stroke="#757575" d="M459.323,-725.758C469.151,-723.14 478.968,-719.939 488,-716.035 505.881,-708.306 507.939,-702.058 524,-691.035 565.066,-662.849 613.014,-630.423 641.644,-611.112"/>
<polygon fill="#757575" stroke="#757575" points="643.893,-613.817 650.228,-605.325 639.98,-608.013 643.893,-613.817"/>
</g>
<!-- components/Login.tsx&#45;&gt;components/common/ListErrors.tsx -->
<g id="edge30" class="edge"><title>components/Login.tsx&#45;&gt;components/common/ListErrors.tsx</title>
<path fill="none" stroke="#757575" d="M464.598,-730.237C487.805,-728.15 514.014,-725.793 539.687,-723.484"/>
<polygon fill="#757575" stroke="#757575" points="540.227,-726.95 549.874,-722.568 539.6,-719.978 540.227,-726.95"/>
</g>
<!-- components/PrivateRoute.tsx&#45;&gt;context/auth.tsx -->
<g id="edge32" class="edge"><title>components/PrivateRoute.tsx&#45;&gt;context/auth.tsx</title>
<path fill="none" stroke="#757575" d="M487.795,-606.927C524.992,-604.251 566.392,-601.273 600.021,-598.854"/>
<polygon fill="#757575" stroke="#757575" points="600.472,-602.33 610.195,-598.122 599.97,-595.348 600.472,-602.33"/>
</g>
<!-- components/Profile.tsx&#45;&gt;utils.ts -->
<g id="edge37" class="edge"><title>components/Profile.tsx&#45;&gt;utils.ts</title>
<path fill="none" stroke="#757575" d="M467.444,-480.139C720.984,-486.941 1512.44,-508.172 1693.74,-513.035"/>
<polygon fill="#757575" stroke="#757575" points="1693.75,-516.537 1703.84,-513.306 1693.94,-509.539 1693.75,-516.537"/>
</g>
<!-- components/Profile.tsx&#45;&gt;api/ProfileAPI.ts -->
<g id="edge33" class="edge"><title>components/Profile.tsx&#45;&gt;api/ProfileAPI.ts</title>
<path fill="none" stroke="#757575" d="M463.483,-466.781C483.123,-464.177 504.326,-461.687 524,-460.035 749.772,-441.074 1018.62,-437.041 1141.58,-436.22"/>
<polygon fill="#757575" stroke="#757575" points="1141.63,-439.72 1151.6,-436.158 1141.58,-432.72 1141.63,-439.72"/>
</g>
<!-- components/Profile.tsx&#45;&gt;context/auth.tsx -->
<g id="edge36" class="edge"><title>components/Profile.tsx&#45;&gt;context/auth.tsx</title>
<path fill="none" stroke="#757575" d="M426.329,-489.386C445.158,-495.572 468.152,-503.837 488,-513.035 504.806,-520.823 507.424,-525.767 524,-534.035 558.2,-551.093 598.441,-567.682 627.508,-579.077"/>
<polygon fill="#757575" stroke="#757575" points="626.323,-582.372 636.912,-582.736 628.861,-575.848 626.323,-582.372"/>
</g>
<!-- components/ProfileArticles.tsx -->
<g id="node25" class="node"><title>components/ProfileArticles.tsx</title>
<path fill="none" stroke="#c6c5fe" d="M762.333,-129.535C762.333,-129.535 573.667,-129.535 573.667,-129.535 569.833,-129.535 566,-125.702 566,-121.868 566,-121.868 566,-114.202 566,-114.202 566,-110.368 569.833,-106.535 573.667,-106.535 573.667,-106.535 762.333,-106.535 762.333,-106.535 766.167,-106.535 770,-110.368 770,-114.202 770,-114.202 770,-121.868 770,-121.868 770,-125.702 766.167,-129.535 762.333,-129.535"/>
<text text-anchor="middle" x="668" y="-114.335" font-family="Arial" font-size="14.00" fill="#c6c5fe">components/ProfileArticles.tsx</text>
</g>
<!-- components/Profile.tsx&#45;&gt;components/ProfileArticles.tsx -->
<g id="edge34" class="edge"><title>components/Profile.tsx&#45;&gt;components/ProfileArticles.tsx</title>
<path fill="none" stroke="#757575" d="M397.935,-466.465C437.967,-414.625 601.077,-203.402 651.844,-137.662"/>
<polygon fill="#757575" stroke="#757575" points="654.895,-139.437 658.237,-129.382 649.355,-135.158 654.895,-139.437"/>
</g>
<!-- components/common/FollowUserButton.tsx -->
<g id="node26" class="node"><title>components/common/FollowUserButton.tsx</title>
<path fill="none" stroke="#cfffac" d="M803.833,-525.535C803.833,-525.535 532.167,-525.535 532.167,-525.535 528.333,-525.535 524.5,-521.702 524.5,-517.868 524.5,-517.868 524.5,-510.202 524.5,-510.202 524.5,-506.368 528.333,-502.535 532.167,-502.535 532.167,-502.535 803.833,-502.535 803.833,-502.535 807.667,-502.535 811.5,-506.368 811.5,-510.202 811.5,-510.202 811.5,-517.868 811.5,-517.868 811.5,-521.702 807.667,-525.535 803.833,-525.535"/>
<text text-anchor="middle" x="668" y="-510.335" font-family="Arial" font-size="14.00" fill="#cfffac">components/common/FollowUserButton.tsx</text>
</g>
<!-- components/Profile.tsx&#45;&gt;components/common/FollowUserButton.tsx -->
<g id="edge35" class="edge"><title>components/Profile.tsx&#45;&gt;components/common/FollowUserButton.tsx</title>
<path fill="none" stroke="#757575" d="M467.178,-488.159C498.906,-492.267 535.9,-497.058 569.373,-501.393"/>
<polygon fill="#757575" stroke="#757575" points="569.271,-504.909 579.638,-502.722 570.17,-497.967 569.271,-504.909"/>
</g>
<!-- components/Register.tsx&#45;&gt;api/AuthAPI.ts -->
<g id="edge42" class="edge"><title>components/Register.tsx&#45;&gt;api/AuthAPI.ts</title>
<path fill="none" stroke="#757575" d="M473.571,-692.468C589.101,-687.595 793.574,-678.97 895.957,-674.652"/>
<polygon fill="#757575" stroke="#757575" points="896.293,-678.141 906.137,-674.223 895.998,-671.147 896.293,-678.141"/>
</g>
<!-- components/Register.tsx&#45;&gt;context/auth.tsx -->
<g id="edge44" class="edge"><title>components/Register.tsx&#45;&gt;context/auth.tsx</title>
<path fill="none" stroke="#757575" d="M452.965,-684.746C464.747,-682.025 476.845,-678.795 488,-675.035 504.767,-669.383 507.924,-665.427 524,-658.035 560.745,-641.139 603.047,-622.279 632.055,-609.437"/>
<polygon fill="#757575" stroke="#757575" points="633.625,-612.569 641.356,-605.324 630.794,-606.167 633.625,-612.569"/>
</g>
<!-- components/Register.tsx&#45;&gt;components/common/ListErrors.tsx -->
<g id="edge43" class="edge"><title>components/Register.tsx&#45;&gt;components/common/ListErrors.tsx</title>
<path fill="none" stroke="#757575" d="M473.541,-700.901C494.39,-702.101 517.18,-703.412 539.567,-704.701"/>
<polygon fill="#757575" stroke="#757575" points="539.632,-708.21 549.816,-705.291 540.034,-701.222 539.632,-708.21"/>
</g>
<!-- components/Settings.tsx&#45;&gt;api/AuthAPI.ts -->
<g id="edge45" class="edge"><title>components/Settings.tsx&#45;&gt;api/AuthAPI.ts</title>
<path fill="none" stroke="#757575" d="M472.534,-653.45C557.905,-652.342 694.285,-651.986 812,-658.035 839.726,-659.46 870.317,-662.21 896.304,-664.899"/>
<polygon fill="#757575" stroke="#757575" points="896.08,-668.395 906.392,-665.963 896.814,-661.433 896.08,-668.395"/>
</g>
<!-- components/Settings.tsx&#45;&gt;context/auth.tsx -->
<g id="edge47" class="edge"><title>components/Settings.tsx&#45;&gt;context/auth.tsx</title>
<path fill="none" stroke="#757575" d="M449.862,-643.748C462.561,-640.94 475.794,-637.677 488,-634.035 504.451,-629.127 507.479,-624.703 524,-620.035 548.541,-613.101 575.991,-607.59 600.23,-603.458"/>
<polygon fill="#757575" stroke="#757575" points="601.11,-606.86 610.404,-601.772 599.966,-599.955 601.11,-606.86"/>
</g>
<!-- components/Settings.tsx&#45;&gt;components/common/ListErrors.tsx -->
<g id="edge46" class="edge"><title>components/Settings.tsx&#45;&gt;components/common/ListErrors.tsx</title>
<path fill="none" stroke="#757575" d="M445.03,-666.309C459.064,-669.145 474.084,-672.191 488,-675.035 526.06,-682.813 568.651,-691.613 602.737,-698.679"/>
<polygon fill="#757575" stroke="#757575" points="602.068,-702.114 612.57,-700.718 603.489,-695.26 602.068,-702.114"/>
</g>
<!-- context/auth.tsx&#45;&gt;api/APIUtils.ts -->
<g id="edge55" class="edge"><title>context/auth.tsx&#45;&gt;api/APIUtils.ts</title>
<path fill="none" stroke="#757575" d="M725.662,-600.654C823.91,-611.541 1032.31,-632.035 1209,-632.035 1209,-632.035 1209,-632.035 1485,-632.035 1626.42,-632.035 1788.05,-577.217 1859.58,-550.001"/>
<polygon fill="#757575" stroke="#757575" points="1860.99,-553.209 1869.06,-546.352 1858.47,-546.676 1860.99,-553.209"/>
</g>
<!-- context/auth.tsx&#45;&gt;api/AuthAPI.ts -->
<g id="edge56" class="edge"><title>context/auth.tsx&#45;&gt;api/AuthAPI.ts</title>
<path fill="none" stroke="#757575" d="M725.671,-598.474C752.635,-602.041 784.838,-608.466 812,-620.035 830.158,-627.769 830.05,-637.829 848,-646.035 863.075,-652.927 880.178,-658.101 896.329,-661.941"/>
<polygon fill="#757575" stroke="#757575" points="895.712,-665.39 906.235,-664.163 897.244,-658.559 895.712,-665.39"/>
</g>
<!-- context/auth.tsx&#45;&gt;utils.ts -->
<g id="edge58" class="edge"><title>context/auth.tsx&#45;&gt;utils.ts</title>
<path fill="none" stroke="#757575" d="M725.813,-591.809C803.553,-588.624 947.42,-582.234 1070,-574.035 1313.87,-557.723 1374.9,-553.288 1618,-528.035 1643.29,-525.408 1671.7,-521.886 1693.7,-519.032"/>
<polygon fill="#757575" stroke="#757575" points="1694.17,-522.5 1703.63,-517.733 1693.26,-515.559 1694.17,-522.5"/>
</g>
<!-- reducers/auth.tsx -->
<g id="node29" class="node"><title>reducers/auth.tsx</title>
<path fill="none" stroke="#cfffac" d="M1013.33,-565.535C1013.33,-565.535 904.667,-565.535 904.667,-565.535 900.833,-565.535 897,-561.702 897,-557.868 897,-557.868 897,-550.202 897,-550.202 897,-546.368 900.833,-542.535 904.667,-542.535 904.667,-542.535 1013.33,-542.535 1013.33,-542.535 1017.17,-542.535 1021,-546.368 1021,-550.202 1021,-550.202 1021,-557.868 1021,-557.868 1021,-561.702 1017.17,-565.535 1013.33,-565.535"/>
<text text-anchor="middle" x="959" y="-550.335" font-family="Arial" font-size="14.00" fill="#cfffac">reducers/auth.tsx</text>
</g>
<!-- context/auth.tsx&#45;&gt;reducers/auth.tsx -->
<g id="edge57" class="edge"><title>context/auth.tsx&#45;&gt;reducers/auth.tsx</title>
<path fill="none" stroke="#757575" d="M725.752,-586.18C771.889,-579.794 837.233,-570.75 886.862,-563.881"/>
<polygon fill="#757575" stroke="#757575" points="887.459,-567.332 896.884,-562.494 886.499,-560.398 887.459,-567.332"/>
</g>
<!-- components/ArticleList.tsx -->
<g id="node15" class="node"><title>components/ArticleList.tsx</title>
<path fill="none" stroke="#c6c5fe" d="M1040.83,-188.535C1040.83,-188.535 877.167,-188.535 877.167,-188.535 873.333,-188.535 869.5,-184.702 869.5,-180.868 869.5,-180.868 869.5,-173.202 869.5,-173.202 869.5,-169.368 873.333,-165.535 877.167,-165.535 877.167,-165.535 1040.83,-165.535 1040.83,-165.535 1044.67,-165.535 1048.5,-169.368 1048.5,-173.202 1048.5,-173.202 1048.5,-180.868 1048.5,-180.868 1048.5,-184.702 1044.67,-188.535 1040.83,-188.535"/>
<text text-anchor="middle" x="959" y="-173.335" font-family="Arial" font-size="14.00" fill="#c6c5fe">components/ArticleList.tsx</text>
</g>
<!-- components/ArticleList.tsx&#45;&gt;api/ArticlesAPI.ts -->
<g id="edge14" class="edge"><title>components/ArticleList.tsx&#45;&gt;api/ArticlesAPI.ts</title>
<path fill="none" stroke="#757575" d="M1036.09,-165.761C1162.46,-150.389 1421.17,-133.313 1618,-215.035 1659.99,-232.468 1696.77,-272.377 1716.25,-296.482"/>
<polygon fill="#757575" stroke="#757575" points="1713.69,-298.883 1722.62,-304.576 1719.19,-294.554 1713.69,-298.883"/>
</g>
<!-- components/ArticlePreview.tsx -->
<g id="node16" class="node"><title>components/ArticlePreview.tsx</title>
<path fill="none" stroke="#c6c5fe" d="M1305.83,-327.535C1305.83,-327.535 1114.17,-327.535 1114.17,-327.535 1110.33,-327.535 1106.5,-323.702 1106.5,-319.868 1106.5,-319.868 1106.5,-312.202 1106.5,-312.202 1106.5,-308.368 1110.33,-304.535 1114.17,-304.535 1114.17,-304.535 1305.83,-304.535 1305.83,-304.535 1309.67,-304.535 1313.5,-308.368 1313.5,-312.202 1313.5,-312.202 1313.5,-319.868 1313.5,-319.868 1313.5,-323.702 1309.67,-327.535 1305.83,-327.535"/>
<text text-anchor="middle" x="1210" y="-312.335" font-family="Arial" font-size="14.00" fill="#c6c5fe">components/ArticlePreview.tsx</text>
</g>
<!-- components/ArticleList.tsx&#45;&gt;components/ArticlePreview.tsx -->
<g id="edge15" class="edge"><title>components/ArticleList.tsx&#45;&gt;components/ArticlePreview.tsx</title>
<path fill="none" stroke="#757575" d="M980.377,-188.41C1024.44,-213.009 1128.73,-271.227 1179.8,-299.735"/>
<polygon fill="#757575" stroke="#757575" points="1178.25,-302.88 1188.69,-304.698 1181.67,-296.767 1178.25,-302.88"/>
</g>
<!-- components/ListPagination.tsx -->
<g id="node17" class="node"><title>components/ListPagination.tsx</title>
<path fill="none" stroke="#c6c5fe" d="M1579.33,-247.535C1579.33,-247.535 1388.67,-247.535 1388.67,-247.535 1384.83,-247.535 1381,-243.702 1381,-239.868 1381,-239.868 1381,-232.202 1381,-232.202 1381,-228.368 1384.83,-224.535 1388.67,-224.535 1388.67,-224.535 1579.33,-224.535 1579.33,-224.535 1583.17,-224.535 1587,-228.368 1587,-232.202 1587,-232.202 1587,-239.868 1587,-239.868 1587,-243.702 1583.17,-247.535 1579.33,-247.535"/>
<text text-anchor="middle" x="1484" y="-232.335" font-family="Arial" font-size="14.00" fill="#c6c5fe">components/ListPagination.tsx</text>
</g>
<!-- components/ArticleList.tsx&#45;&gt;components/ListPagination.tsx -->
<g id="edge16" class="edge"><title>components/ArticleList.tsx&#45;&gt;components/ListPagination.tsx</title>
<path fill="none" stroke="#757575" d="M1001.85,-188.29C1030.86,-195.65 1070.52,-204.833 1106,-210.035 1194.35,-222.987 1295.31,-229.516 1370.51,-232.791"/>
<polygon fill="#757575" stroke="#757575" points="1370.8,-236.307 1380.94,-233.232 1371.1,-229.313 1370.8,-236.307"/>
</g>
<!-- context/articles.tsx -->
<g id="node18" class="node"><title>context/articles.tsx</title>
<path fill="none" stroke="#c6c5fe" d="M1268.33,-129.535C1268.33,-129.535 1151.67,-129.535 1151.67,-129.535 1147.83,-129.535 1144,-125.702 1144,-121.868 1144,-121.868 1144,-114.202 1144,-114.202 1144,-110.368 1147.83,-106.535 1151.67,-106.535 1151.67,-106.535 1268.33,-106.535 1268.33,-106.535 1272.17,-106.535 1276,-110.368 1276,-114.202 1276,-114.202 1276,-121.868 1276,-121.868 1276,-125.702 1272.17,-129.535 1268.33,-129.535"/>
<text text-anchor="middle" x="1210" y="-114.335" font-family="Arial" font-size="14.00" fill="#c6c5fe">context/articles.tsx</text>
</g>
<!-- components/ArticleList.tsx&#45;&gt;context/articles.tsx -->
<g id="edge17" class="edge"><title>components/ArticleList.tsx&#45;&gt;context/articles.tsx</title>
<path fill="none" stroke="#757575" d="M1007.72,-165.729C1048.72,-156.013 1107.96,-141.976 1151.56,-131.646"/>
<polygon fill="#757575" stroke="#757575" points="1152.52,-135.014 1161.45,-129.303 1150.91,-128.203 1152.52,-135.014"/>
</g>
<!-- reducers/articleList.tsx -->
<g id="node19" class="node"><title>reducers/articleList.tsx</title>
<path fill="none" stroke="#cfffac" d="M1802.33,-207.535C1802.33,-207.535 1661.67,-207.535 1661.67,-207.535 1657.83,-207.535 1654,-203.702 1654,-199.868 1654,-199.868 1654,-192.202 1654,-192.202 1654,-188.368 1657.83,-184.535 1661.67,-184.535 1661.67,-184.535 1802.33,-184.535 1802.33,-184.535 1806.17,-184.535 1810,-188.368 1810,-192.202 1810,-192.202 1810,-199.868 1810,-199.868 1810,-203.702 1806.17,-207.535 1802.33,-207.535"/>
<text text-anchor="middle" x="1732" y="-192.335" font-family="Arial" font-size="14.00" fill="#cfffac">reducers/articleList.tsx</text>
</g>
<!-- components/ArticleList.tsx&#45;&gt;reducers/articleList.tsx -->
<g id="edge18" class="edge"><title>components/ArticleList.tsx&#45;&gt;reducers/articleList.tsx</title>
<path fill="none" stroke="#757575" d="M1048.82,-179.224C1197.6,-182.89 1495.39,-190.229 1643.37,-193.876"/>
<polygon fill="#757575" stroke="#757575" points="1643.68,-197.384 1653.76,-194.132 1643.85,-190.386 1643.68,-197.384"/>
</g>
<!-- components/ArticlePreview.tsx&#45;&gt;reducers/articleList.tsx -->
<g id="edge22" class="edge"><title>components/ArticlePreview.tsx&#45;&gt;reducers/articleList.tsx</title>
<path fill="none" stroke="#757575" d="M1285.29,-304.735C1306.22,-301.573 1329,-298.15 1350,-295.035 1469.06,-277.378 1503.61,-293.477 1618,-256.035 1649.91,-245.59 1683.54,-226.558 1705.73,-212.723"/>
<polygon fill="#757575" stroke="#757575" points="1707.65,-215.651 1714.21,-207.337 1703.89,-209.741 1707.65,-215.651"/>
</g>
<!-- components/common/ArticleAvatar.tsx -->
<g id="node20" class="node"><title>components/common/ArticleAvatar.tsx</title>
<path fill="none" stroke="#c6c5fe" d="M1603.83,-368.535C1603.83,-368.535 1364.17,-368.535 1364.17,-368.535 1360.33,-368.535 1356.5,-364.702 1356.5,-360.868 1356.5,-360.868 1356.5,-353.202 1356.5,-353.202 1356.5,-349.368 1360.33,-345.535 1364.17,-345.535 1364.17,-345.535 1603.83,-345.535 1603.83,-345.535 1607.67,-345.535 1611.5,-349.368 1611.5,-353.202 1611.5,-353.202 1611.5,-360.868 1611.5,-360.868 1611.5,-364.702 1607.67,-368.535 1603.83,-368.535"/>
<text text-anchor="middle" x="1484" y="-353.335" font-family="Arial" font-size="14.00" fill="#c6c5fe">components/common/ArticleAvatar.tsx</text>
</g>
<!-- components/ArticlePreview.tsx&#45;&gt;components/common/ArticleAvatar.tsx -->
<g id="edge19" class="edge"><title>components/ArticlePreview.tsx&#45;&gt;components/common/ArticleAvatar.tsx</title>
<path fill="none" stroke="#757575" d="M1285.68,-327.293C1320.47,-332.537 1362.03,-338.801 1398.02,-344.225"/>
<polygon fill="#757575" stroke="#757575" points="1397.6,-347.702 1408.01,-345.731 1398.64,-340.78 1397.6,-347.702"/>
</g>
<!-- components/common/ArticleTags.tsx -->
<g id="node21" class="node"><title>components/common/ArticleTags.tsx</title>
<path fill="none" stroke="#cfffac" d="M1599.33,-409.535C1599.33,-409.535 1368.67,-409.535 1368.67,-409.535 1364.83,-409.535 1361,-405.702 1361,-401.868 1361,-401.868 1361,-394.202 1361,-394.202 1361,-390.368 1364.83,-386.535 1368.67,-386.535 1368.67,-386.535 1599.33,-386.535 1599.33,-386.535 1603.17,-386.535 1607,-390.368 1607,-394.202 1607,-394.202 1607,-401.868 1607,-401.868 1607,-405.702 1603.17,-409.535 1599.33,-409.535"/>
<text text-anchor="middle" x="1484" y="-394.335" font-family="Arial" font-size="14.00" fill="#cfffac">components/common/ArticleTags.tsx</text>
</g>
<!-- components/ArticlePreview.tsx&#45;&gt;components/common/ArticleTags.tsx -->
<g id="edge20" class="edge"><title>components/ArticlePreview.tsx&#45;&gt;components/common/ArticleTags.tsx</title>
<path fill="none" stroke="#757575" d="M1232.03,-327.31C1258.71,-341.133 1306.5,-364.288 1350,-377.035 1360.13,-380.005 1370.83,-382.58 1381.58,-384.808"/>
<polygon fill="#757575" stroke="#757575" points="1380.96,-388.253 1391.45,-386.758 1382.32,-381.386 1380.96,-388.253"/>
</g>
<!-- components/common/FavoriteButton.tsx -->
<g id="node22" class="node"><title>components/common/FavoriteButton.tsx</title>
<path fill="none" stroke="#c6c5fe" d="M1609.83,-327.535C1609.83,-327.535 1358.17,-327.535 1358.17,-327.535 1354.33,-327.535 1350.5,-323.702 1350.5,-319.868 1350.5,-319.868 1350.5,-312.202 1350.5,-312.202 1350.5,-308.368 1354.33,-304.535 1358.17,-304.535 1358.17,-304.535 1609.83,-304.535 1609.83,-304.535 1613.67,-304.535 1617.5,-308.368 1617.5,-312.202 1617.5,-312.202 1617.5,-319.868 1617.5,-319.868 1617.5,-323.702 1613.67,-327.535 1609.83,-327.535"/>
<text text-anchor="middle" x="1484" y="-312.335" font-family="Arial" font-size="14.00" fill="#c6c5fe">components/common/FavoriteButton.tsx</text>
</g>
<!-- components/ArticlePreview.tsx&#45;&gt;components/common/FavoriteButton.tsx -->
<g id="edge21" class="edge"><title>components/ArticlePreview.tsx&#45;&gt;components/common/FavoriteButton.tsx</title>
<path fill="none" stroke="#757575" d="M1313.83,-316.035C1322.47,-316.035 1331.29,-316.035 1340.16,-316.035"/>
<polygon fill="#757575" stroke="#757575" points="1340.17,-319.535 1350.17,-316.035 1340.17,-312.535 1340.17,-319.535"/>
</g>
<!-- components/ListPagination.tsx&#45;&gt;reducers/articleList.tsx -->
<g id="edge28" class="edge"><title>components/ListPagination.tsx&#45;&gt;reducers/articleList.tsx</title>
<path fill="none" stroke="#757575" d="M1554.51,-224.733C1584.76,-219.813 1620.38,-214.021 1651.67,-208.934"/>
<polygon fill="#757575" stroke="#757575" points="1652.36,-212.369 1661.66,-207.309 1651.23,-205.459 1652.36,-212.369"/>
</g>
<!-- context/articles.tsx&#45;&gt;reducers/articleList.tsx -->
<g id="edge54" class="edge"><title>context/articles.tsx&#45;&gt;reducers/articleList.tsx</title>
<path fill="none" stroke="#757575" d="M1276.28,-114.938C1357.62,-112.725 1500.27,-114.283 1618,-144.035 1648.59,-151.767 1681.08,-167.614 1703.33,-179.793"/>
<polygon fill="#757575" stroke="#757575" points="1701.76,-182.929 1712.2,-184.754 1705.18,-176.819 1701.76,-182.929"/>
</g>
<!-- components/common/ArticleAvatar.tsx&#45;&gt;utils.ts -->
<g id="edge48" class="edge"><title>components/common/ArticleAvatar.tsx&#45;&gt;utils.ts</title>
<path fill="none" stroke="#757575" d="M1599.03,-368.329C1605.63,-370.764 1612.01,-373.641 1618,-377.035 1666.9,-404.723 1703.45,-462.435 1720.45,-493.381"/>
<polygon fill="#757575" stroke="#757575" points="1717.48,-495.241 1725.27,-502.415 1723.65,-491.945 1717.48,-495.241"/>
</g>
<!-- components/common/FavoriteButton.tsx&#45;&gt;api/ArticlesAPI.ts -->
<g id="edge49" class="edge"><title>components/common/FavoriteButton.tsx&#45;&gt;api/ArticlesAPI.ts</title>
<path fill="none" stroke="#757575" d="M1617.72,-316.035C1632.55,-316.035 1647.19,-316.035 1660.77,-316.035"/>
<polygon fill="#757575" stroke="#757575" points="1660.93,-319.535 1670.93,-316.035 1660.93,-312.535 1660.93,-319.535"/>
</g>
<!-- components/common/FavoriteButton.tsx&#45;&gt;reducers/articleList.tsx -->
<g id="edge51" class="edge"><title>components/common/FavoriteButton.tsx&#45;&gt;reducers/articleList.tsx</title>
<path fill="none" stroke="#757575" d="M1575.32,-304.741C1589.99,-301.123 1604.72,-296.344 1618,-290.035 1656.83,-271.588 1693.5,-236.709 1714.02,-215.016"/>
<polygon fill="#757575" stroke="#757575" points="1716.84,-217.123 1721.07,-207.409 1711.71,-212.365 1716.84,-217.123"/>
</g>
<!-- reducers/article.tsx -->
<g id="node28" class="node"><title>reducers/article.tsx</title>
<path fill="none" stroke="#cfffac" d="M1791.33,-368.535C1791.33,-368.535 1672.67,-368.535 1672.67,-368.535 1668.83,-368.535 1665,-364.702 1665,-360.868 1665,-360.868 1665,-353.202 1665,-353.202 1665,-349.368 1668.83,-345.535 1672.67,-345.535 1672.67,-345.535 1791.33,-345.535 1791.33,-345.535 1795.17,-345.535 1799,-349.368 1799,-353.202 1799,-353.202 1799,-360.868 1799,-360.868 1799,-364.702 1795.17,-368.535 1791.33,-368.535"/>
<text text-anchor="middle" x="1732" y="-353.335" font-family="Arial" font-size="14.00" fill="#cfffac">reducers/article.tsx</text>
</g>
<!-- components/common/FavoriteButton.tsx&#45;&gt;reducers/article.tsx -->
<g id="edge50" class="edge"><title>components/common/FavoriteButton.tsx&#45;&gt;reducers/article.tsx</title>
<path fill="none" stroke="#757575" d="M1563.13,-327.325C1581.17,-330.059 1600.27,-333.055 1618,-336.035 1632.39,-338.453 1647.78,-341.203 1662.42,-343.899"/>
<polygon fill="#757575" stroke="#757575" points="1661.95,-347.37 1672.42,-345.751 1663.22,-340.488 1661.95,-347.37"/>
</g>
<!-- components/ProfileArticles.tsx&#45;&gt;components/ArticleList.tsx -->
<g id="edge38" class="edge"><title>components/ProfileArticles.tsx&#45;&gt;components/ArticleList.tsx</title>
<path fill="none" stroke="#757575" d="M724.38,-129.341C772.474,-139.159 842.177,-153.389 892.923,-163.749"/>
<polygon fill="#757575" stroke="#757575" points="892.309,-167.196 902.807,-165.767 893.709,-160.338 892.309,-167.196"/>
</g>
<!-- components/ProfileArticles.tsx&#45;&gt;context/articles.tsx -->
<g id="edge40" class="edge"><title>components/ProfileArticles.tsx&#45;&gt;context/articles.tsx</title>
<path fill="none" stroke="#757575" d="M770.253,-118.035C875.887,-118.035 1039.04,-118.035 1133.78,-118.035"/>
<polygon fill="#757575" stroke="#757575" points="1133.86,-121.535 1143.86,-118.035 1133.86,-114.535 1133.86,-121.535"/>
</g>
<!-- components/ProfileArticles.tsx&#45;&gt;reducers/articleList.tsx -->
<g id="edge41" class="edge"><title>components/ProfileArticles.tsx&#45;&gt;reducers/articleList.tsx</title>
<path fill="none" stroke="#757575" d="M770.233,-108.544C981.98,-90.1067 1464.72,-55.8684 1618,-111.035 1656.51,-124.893 1692.78,-156.746 1713.4,-177.282"/>
<polygon fill="#757575" stroke="#757575" points="1711.01,-179.844 1720.51,-184.537 1716.01,-174.945 1711.01,-179.844"/>
</g>
<!-- components/common/TabList.tsx -->
<g id="node27" class="node"><title>components/common/TabList.tsx</title>
<path fill="none" stroke="#c6c5fe" d="M1062.33,-50.535C1062.33,-50.535 855.667,-50.535 855.667,-50.535 851.833,-50.535 848,-46.7016 848,-42.8683 848,-42.8683 848,-35.2016 848,-35.2016 848,-31.3683 851.833,-27.535 855.667,-27.535 855.667,-27.535 1062.33,-27.535 1062.33,-27.535 1066.17,-27.535 1070,-31.3683 1070,-35.2016 1070,-35.2016 1070,-42.8683 1070,-42.8683 1070,-46.7016 1066.17,-50.535 1062.33,-50.535"/>
<text text-anchor="middle" x="959" y="-35.335" font-family="Arial" font-size="14.00" fill="#c6c5fe">components/common/TabList.tsx</text>
</g>
<!-- components/ProfileArticles.tsx&#45;&gt;components/common/TabList.tsx -->
<g id="edge39" class="edge"><title>components/ProfileArticles.tsx&#45;&gt;components/common/TabList.tsx</title>
<path fill="none" stroke="#757575" d="M704.833,-106.784C740.852,-95.6274 798.043,-78.3237 848,-65.035 864.097,-60.7531 881.613,-56.4522 897.837,-52.6158"/>
<polygon fill="#757575" stroke="#757575" points="898.811,-55.9824 907.748,-50.2913 897.213,-49.1673 898.811,-55.9824"/>
</g>
<!-- components/common/TabList.tsx&#45;&gt;context/articles.tsx -->
<g id="edge52" class="edge"><title>components/common/TabList.tsx&#45;&gt;context/articles.tsx</title>
<path fill="none" stroke="#757575" d="M995.676,-50.3538C1039.96,-64.4037 1115.53,-88.3793 1163.82,-103.7"/>
<polygon fill="#757575" stroke="#757575" points="1162.8,-107.049 1173.39,-106.737 1164.92,-100.377 1162.8,-107.049"/>
</g>
<!-- components/common/TabList.tsx&#45;&gt;reducers/articleList.tsx -->
<g id="edge53" class="edge"><title>components/common/TabList.tsx&#45;&gt;reducers/articleList.tsx</title>
<path fill="none" stroke="#757575" d="M1011.57,-27.7279C1127.05,-5.13088 1412.42,35.3691 1618,-64.035 1667.5,-87.9712 1703.8,-144.74 1720.6,-175.452"/>
<polygon fill="#757575" stroke="#757575" points="1717.58,-177.238 1725.36,-184.434 1723.77,-173.959 1717.58,-177.238"/>
</g>
<!-- index.css -->
<g id="node30" class="node"><title>index.css</title>
<path fill="none" stroke="#cfffac" d="M209.833,-625.535C209.833,-625.535 150.167,-625.535 150.167,-625.535 146.333,-625.535 142.5,-621.702 142.5,-617.868 142.5,-617.868 142.5,-610.202 142.5,-610.202 142.5,-606.368 146.333,-602.535 150.167,-602.535 150.167,-602.535 209.833,-602.535 209.833,-602.535 213.667,-602.535 217.5,-606.368 217.5,-610.202 217.5,-610.202 217.5,-617.868 217.5,-617.868 217.5,-621.702 213.667,-625.535 209.833,-625.535"/>
<text text-anchor="middle" x="180" y="-610.335" font-family="Arial" font-size="14.00" fill="#cfffac">index.css</text>
</g>
<!-- index.tsx -->
<g id="node31" class="node"><title>index.tsx</title>
<path fill="none" stroke="#c6c5fe" d="M64.3333,-645.535C64.3333,-645.535 7.66667,-645.535 7.66667,-645.535 3.83333,-645.535 0,-641.702 0,-637.868 0,-637.868 0,-630.202 0,-630.202 0,-626.368 3.83333,-622.535 7.66667,-622.535 7.66667,-622.535 64.3333,-622.535 64.3333,-622.535 68.1667,-622.535 72,-626.368 72,-630.202 72,-630.202 72,-637.868 72,-637.868 72,-641.702 68.1667,-645.535 64.3333,-645.535"/>
<text text-anchor="middle" x="36" y="-630.335" font-family="Arial" font-size="14.00" fill="#c6c5fe">index.tsx</text>
</g>
<!-- index.tsx&#45;&gt;components/App.tsx -->
<g id="edge59" class="edge"><title>index.tsx&#45;&gt;components/App.tsx</title>
<path fill="none" stroke="#757575" d="M72.1011,-639.226C80.1832,-640.421 89.1074,-641.741 98.2515,-643.093"/>
<polygon fill="#757575" stroke="#757575" points="97.8263,-646.568 108.231,-644.569 98.8504,-639.644 97.8263,-646.568"/>
</g>
<!-- index.tsx&#45;&gt;index.css -->
<g id="edge60" class="edge"><title>index.tsx&#45;&gt;index.css</title>
<path fill="none" stroke="#757575" d="M72.1011,-629.091C90.2851,-626.53 112.732,-623.368 132.355,-620.605"/>
<polygon fill="#757575" stroke="#757575" points="132.908,-624.061 142.322,-619.201 131.931,-617.13 132.908,-624.061"/>
</g>
</g>
</svg>
